<svg width="24" height="22" viewBox="0 0 24 22" fill="none" xmlns="http://www.w3.org/2000/svg">
<path d="M22.6534 21.5763C22.1451 18.9403 21.6744 16.5087 21.2512 14.3358C21.1009 13.5665 20.9574 12.8303 20.8198 12.1287C20.7926 11.9913 20.7659 11.8533 20.7392 11.7184C20.3749 9.86117 20.0585 8.26516 19.7991 6.97814C19.7371 6.67109 19.6782 6.38182 19.623 6.11059C19.3714 4.87686 19.1899 4.02375 19.0903 3.61372C19.0717 3.5382 19.0563 3.47797 19.0437 3.433C18.9712 3.1787 18.8386 2.95078 18.6594 2.74645C17.1349 1.01274 12.2089 0.986917 11.7554 0.986917C11.7486 0.986917 11.7427 0.986917 11.7377 0.986917C11.7291 0.986917 11.7241 0.986917 11.7223 0.986917C11.6381 0.986639 10.4644 0.981921 8.49141 0.974703C8.05779 0.973315 7.58614 0.971659 7.07828 0.969715C5.16771 0.963052 2.75247 0.954991 0 0.946387V0C6.45411 0.0205428 11.0547 0.0383169 11.7105 0.0408156C11.7291 0.040538 11.7762 0.039975 11.8481 0.039975C12.9322 0.039975 19.6819 0.169617 20.5618 3.2703C20.8153 4.16339 22.1442 10.8861 24 20.5C23.5519 20.8581 23.1015 21.2181 22.6534 21.5763Z" fill="white"/>
</svg>
