<svg width="21" height="11" viewBox="0 0 21 11" fill="none" xmlns="http://www.w3.org/2000/svg">
<path d="M21 10.9075L20.3111 10.0985H8.59819V6.10761H20.0481C20.3107 7.41082 20.6311 9.0269 21 10.9075ZM7.16729 10.0985H0V6.10761H7.16729V10.0985ZM19.8698 5.22915H8.59819V2.70089H19.3303C19.4312 3.11608 19.6149 3.97992 19.8698 5.22915ZM7.16729 5.22915H0V2.70089H7.16729V5.22915ZM18.894 1.82272H8.59819V0.028689C10.596 0.0359972 11.7845 0.0407753 11.8697 0.0410564C11.8715 0.0410564 11.8766 0.0410564 11.8853 0.0410564C11.8903 0.0410564 11.8963 0.0410564 11.9032 0.0410564C12.3624 0.0410564 17.3504 0.0672095 18.894 1.82272ZM7.16729 1.82272H0V1.55102e-05C2.78708 0.00873029 5.2327 0.0168915 7.16729 0.0236385V1.82272Z" fill="#F25528"/>
</svg>
