<svg width="65" height="23" viewBox="0 0 65 23" fill="none" xmlns="http://www.w3.org/2000/svg">
<path d="M12.1533 19.4753C12.1533 19.4753 26.7515 13.5602 30.1072 11.4085C33.4629 9.25614 34.2196 8.61039 41.0459 6.61547C47.8727 4.62139 52.4324 4.10992 54.5777 3.85614C56.7238 3.60235 60.8544 3.22292 61.9236 3.14714C64.0783 3.04267 64.8814 2.76521 64.6534 2.46435C64.4249 2.1632 64.2709 2.30249 64.0979 2.38383C64.0979 2.38383 64.3877 1.8392 63.8049 1.8938C63.8049 1.8938 63.6991 1.68543 63.1926 1.70214C63.1926 1.70214 62.8901 1.40601 62.6494 1.36311C62.6494 1.36311 62.1275 0.810965 61.2668 0.976999C60.3397 1.15529 59.6671 0.923505 59.0948 0.990643C58.522 1.05862 55.0278 0.971985 54.0385 0.488925C53.0497 0.00698028 50.7219 -0.253773 50.041 0.354926C49.3584 0.963069 49.471 1.72805 47.9431 1.9732C46.4137 2.21724 43.8075 2.96022 39.5298 3.41626C35.2511 3.87146 31.3667 4.91557 28.7042 6.88542C26.0416 8.85582 13.2343 11.9024 11.0768 12.0718C10.9142 12.0848 10.7148 12.0985 10.4909 12.1152C9.54205 12.4824 8.20349 12.9496 7.07524 13.1488C5.08263 13.5025 1.31225 14.6968 0.159925 19.4464C-0.992854 24.1956 4.37588 23.3111 6.99121 21.7761C9.34401 20.3952 9.71601 19.7859 12.2155 19.4497L12.1533 19.4753Z" fill="#EDE5D4"/>
</svg>
