<svg width="95" height="106" viewBox="0 0 95 106" fill="none" xmlns="http://www.w3.org/2000/svg">
<path d="M93.4717 105.702C93.2862 104.715 74.9049 6.9872 73.9128 3.48733C73.2191 1.04713 66.9825 1.04767 66.6277 1.04823C66.6191 1.04823 66.6142 1.04823 66.6124 1.04823C65.9931 1.04546 6.74774 0.81515 3.49898 1.04491C2.64594 1.10526 2.06642 1.27107 1.77576 1.53821C1.40114 1.88258 1.58529 2.32909 1.58665 2.33352L1.61643 2.39691V10.9524H0.0787078V2.51927C-0.00388775 2.29172 -0.163662 1.62098 0.497103 1.01418C1.04955 0.506481 2.00053 0.201424 3.32251 0.107581C6.66244 -0.127995 64.1548 0.0954158 66.6006 0.104824C66.9026 0.0998452 74.491 0.0284094 75.4266 3.32509C76.4291 6.85209 94.2422 101.564 95 105.594L93.4717 105.702Z" fill="white"/>
</svg>
