<svg width="25" height="24" viewBox="0 0 25 24" fill="none" xmlns="http://www.w3.org/2000/svg">
<path d="M0 13.9264C0.334015 13.6614 0.659738 13.4183 0.973943 13.1926C1.08958 13.2406 1.20015 13.2886 1.31809 13.3375C8.95805 16.5475 10.2794 9.43411 10.418 7.81019C10.4558 7.37277 10.571 6.9088 10.7161 6.4646C13.3187 0.89008 20.515 0.207104 23.3138 -1.94886e-05C22.3514 0.372406 20.9937 0.846278 19.8493 1.04831C17.8281 1.40718 14.0038 2.61855 12.8349 7.43607C11.6656 12.2533 17.1112 11.3562 19.764 9.7992C22.1505 8.3985 22.4652 7.80596 25 7.46546C24.8489 7.53017 24.7342 7.58442 24.6646 7.62624C23.3894 8.37759 23.5796 9.81022 18.7491 11.6404C13.9181 13.4695 13.7688 15.775 12.4608 18.1514C11.1533 20.5275 8.93226 22.0989 4.82272 23.2461C4.82272 23.2461 3.8755 23.2611 2.58965 23.5558C3.93907 18.335 1.44571 15.2248 0 13.9264Z" fill="#1F1411"/>
</svg>
