<svg width="9" height="6" viewBox="0 0 9 6" fill="none" xmlns="http://www.w3.org/2000/svg">
<path d="M0.0617692 4.85537C0.170977 4.03038 0.375065 3.29481 0.651298 2.64015C0.78719 2.31707 0.939881 2.0155 1.10641 1.73151C1.50223 1.05898 1.98057 0.486748 2.50586 0C3.8124 0.373093 4.99837 1.17414 5.67487 1.97185C5.88389 2.21886 6.04696 2.46497 6.14629 2.69834C6.17495 2.76532 6.19867 2.83109 6.21646 2.89413C6.49615 3.8743 8.16738 4.288 9.00003 4.43438C7.19192 5.53154 4.54968 5.54943 0.778787 5.45062C0.523309 5.44426 0.264866 5.43699 0 5.42971C0.0148246 5.23332 0.0370615 5.04298 0.0617692 4.85537Z" fill="#1F1411"/>
</svg>
