<svg width="21" height="31" viewBox="0 0 21 31" fill="none" xmlns="http://www.w3.org/2000/svg">
<path d="M1.38124 27.8898C1.97161 27.3876 3.20929 24.9229 3.36414 24.3077C4.34296 19.0433 5.66737 18.3315 6.54548 17.7482C7.42313 17.1652 8.92588 14.64 8.77424 12.493C8.62125 10.3456 9.05442 10.5075 10.7722 7.4462C12.7778 3.99155 15.1229 1.60933 17.1534 -7.65878e-06C18.5738 1.27564 21.0234 4.33134 19.6977 9.46056C17.2503 10.0213 13.5554 11.6157 12.953 16.1417L12.9516 16.1411C12.9516 16.1411 8.53299 22.1115 6.56811 23.72C4.84629 25.1289 3.32684 27.3954 2.97519 28.8967C2.75752 28.9272 2.08531 30.3733 2.05702 30.5388C2.02873 30.7065 1.60262 30.589 1.4203 30.8952C1.23839 31.2006 0.734472 30.7412 0.734472 30.7412C0.734472 30.7412 0.797749 30.2784 0.171666 30.2032C-0.454779 30.1276 0.791051 28.3912 1.38124 27.8898Z" fill="#EDE5D4"/>
</svg>
