<svg width="34" height="10" viewBox="0 0 34 10" fill="none" xmlns="http://www.w3.org/2000/svg">
<path d="M33.2293 10H27.3894V6.06971H33.2293V10ZM25.9803 10H9.70215V6.06971H25.9803V10ZM8.29253 10H0L5.55228 6.06971H8.29253V10ZM33.2293 5.20459H27.3894V2.7147H33.2293V5.20459ZM25.9803 5.20459H9.70215V3.13189L10.2916 2.7147H25.9803V5.20459ZM8.29253 5.20459H6.77412L8.29253 4.12991V5.20459ZM33.2293 1.84987H27.3894V0.0282573C29.4152 0.0335175 31.3755 0.0390632 33.2293 0.0446003V1.84987ZM25.9803 1.84987H11.513L14.1265 1.90934e-05C18.1089 0.00638675 22.1441 0.015249 25.9803 0.024662V1.84987Z" fill="#F25528"/>
</svg>
