<svg width="10" height="7" viewBox="0 0 10 7" fill="none" xmlns="http://www.w3.org/2000/svg">
<path d="M3.4349 5.16031C3.34118 4.94012 3.18732 4.7079 2.9901 4.47484C2.35179 3.72217 1.23278 2.96635 0 2.61432C1.42907 1.28999 3.23488 0.635694 4.64157 0.313406C5.94289 0.0151395 6.90151 -1.57785e-05 6.90151 -1.57785e-05C11.4177 0.257643 9.76292 1.29486 9.43188 1.43813C9.0999 1.5814 9.22952 1.96203 9.22952 1.96203C9.22952 1.96203 8.8775 2.1848 8.74182 2.32149C8.60521 2.45819 8.6593 2.68868 8.54366 2.74673C8.4271 2.80335 8.51988 3.24317 8.97122 3.31123C9.42255 3.37815 9.10504 3.94351 7.99115 4.4085L7.36171 5.69165L7.35844 5.69479C7.00362 6.15148 6.59518 6.51352 6.12752 6.79834C5.34188 6.66022 3.76501 6.26988 3.50111 5.34505C3.48433 5.28557 3.46194 5.22351 3.4349 5.16031Z" fill="#EDE5D4"/>
</svg>
